<svg width="19444" height="23325" viewBox="0 0 19444 23325" fill="none" xmlns="http://www.w3.org/2000/svg">
<path d="M0 5826.53L9721.77 0L19443.5 5826.53V17493.6L9721.77 23324.8L0 17493.6V5826.53Z" fill="#181818"/>
<path d="M9726.1 5752.3C9145.09 5752.3 8684.59 6169.93 8641.28 6683.52H8898.06C8941.58 6293.44 9302.29 5989.25 9726.1 5989.25C10142.8 5989.25 10493.9 6287.44 10535.6 6683.52H10810.8C10766.7 6170.27 10298.5 5752.3 9726.1 5752.3Z" fill="white" stroke="#181818" stroke-width="158.523"/>
<path d="M6936.15 6354.45V6737.51H7249.19V6737.36V6736.3V6735.23V6734.16V6733.08V6732V6730.91V6729.82V6728.72V6727.62V6726.51V6725.4V6724.28V6723.16V6722.04V6720.91V6719.78V6718.64V6717.49V6716.35V6715.19V6714.04V6712.88V6711.71V6710.55V6709.37V6708.2V6707.01V6705.83V6704.64V6703.45V6702.25V6701.05V6699.85V6698.64V6697.43V6696.21V6694.99V6693.77V6692.54V6691.31V6690.08V6688.84V6687.6V6686.36V6685.11V6683.86V6682.61V6681.35V6680.09V6678.83V6677.56V6676.29V6675.02V6673.75V6672.47V6671.19V6669.9V6668.62V6667.33V6666.04V6664.74V6663.45V6662.15V6660.84V6659.54V6658.23V6656.92V6655.61V6654.3V6652.98V6651.66V6650.34V6649.01V6647.69V6646.36V6645.03V6643.7V6642.37V6641.03V6639.69V6638.35V6637.01V6635.67V6634.32V6632.98V6631.63V6630.28V6628.93V6627.58V6626.22V6624.87V6623.51V6622.15V6620.79V6619.43V6618.07V6616.7V6615.34V6613.97V6612.6V6611.24V6609.87V6608.5V6607.13V6605.75V6604.38V6603.01V6601.63V6600.26V6598.88V6597.51V6596.13V6594.75V6593.37V6591.99V6590.61V6589.24V6587.86V6586.48V6585.09V6583.71V6582.33V6580.95V6579.57V6578.19V6576.81V6575.43V6574.05V6572.66V6571.28V6569.9V6568.52V6567.14V6565.76V6564.38V6563V6561.62V6560.25V6558.87V6557.49V6556.11V6554.74V6553.36V6551.99V6550.61V6549.24V6547.86V6546.49V6545.12V6543.75V6542.38V6541.01V6539.65V6538.28V6536.92V6535.55V6534.19V6532.83V6531.47V6530.11V6528.76V6527.4V6526.05V6524.69V6523.34V6521.99V6520.64V6519.3V6517.95V6516.61V6515.27V6513.93V6512.59V6511.26V6509.92V6508.59V6507.26V6505.94V6504.61V6503.29V6501.97V6500.65V6499.33V6498.02V6496.71V6495.4V6494.09V6492.78V6491.48V6490.18V6488.89V6487.59V6486.3V6485.01V6483.73V6482.44V6481.16V6479.89V6478.61V6477.34V6476.07V6474.8V6473.54V6472.28V6471.03V6469.77V6468.52V6467.28V6466.03V6464.79V6463.56V6462.33V6461.1V6459.87V6458.65V6457.43V6456.21V6455V6453.8V6452.59V6451.39V6450.2V6449V6447.81V6446.63V6445.45V6444.27V6443.1V6441.93V6440.77V6439.61V6438.45V6437.3V6436.16V6435.01V6433.88V6432.74V6431.61V6430.49V6429.37V6428.25V6427.14V6426.04V6424.94V6423.84V6422.75V6421.66V6420.58V6419.5V6418.43V6417.36V6416.3V6415.25V6414.19V6413.15V6412.11V6411.07V6410.04V6409.02V6408V6406.98V6405.97V6404.97V6403.97V6402.98V6401.99V6401.01V6400.04V6399.07V6398.1V6397.15V6396.2V6395.25V6394.31V6393.38V6392.45V6391.53V6390.61V6389.7V6388.8V6387.9V6387.01V6386.12V6385.25V6384.37V6383.51V6382.65V6381.8V6380.95V6380.11V6379.28V6378.46V6377.64V6376.82V6376.02V6375.22V6374.43V6373.64V6372.87V6372.1V6371.33V6370.58V6369.83V6369.08V6368.35V6367.62V6366.9V6366.19V6365.48V6364.78V6364.09V6363.41V6362.73V6362.06V6361.4V6360.75V6360.11V6359.47V6358.84V6358.22V6357.6V6357V6356.4V6355.81V6355.23V6354.65V6354.09V6353.53V6352.98V6352.44V6351.9V6351.38V6350.86V6350.35V6349.85V6349.36V6348.88V6348.41V6347.94V6347.48V6347.04V6346.6V6346.17V6345.74V6345.33V6344.93V6344.53V6344.14V6343.77V6343.4V6343.04V6342.69V6342.35V6342.02V6341.69V6341.38V6341.08V6340.78V6340.5V6340.22V6339.96V6339.7V6339.45V6339.21V6338.99V6338.77V6338.56V6338.36V6338.17V6337.99V6337.82V6337.67V6337.52V6337.38V6337.25V6337.13V6337.02V6336.92V6336.83V6336.75V6336.69V6336.63V6336.58V6336.54V6336.52V6336.5V6336.5V6257.24H7328.45H7743.43C7882.78 6257.24 8015.04 6175.98 8077.35 6059.99C8121.37 5957.1 8187.28 5885.37 8270.58 5797.28L8272.01 5795.76L8273.53 5794.32C8301.19 5767.99 8322.63 5742.28 8351.48 5707.67C8357.68 5700.23 8364.22 5692.39 8371.24 5684.03L8371.75 5683.42L8372.28 5682.82C8445.58 5599.1 8458.15 5492.84 8401.69 5398.79L8401.54 5398.55L8401.41 5398.32L8146.76 4967.41L8105.56 4897.7L8176.14 4858L8798.61 4507.9L8866.6 4469.66L8905.92 4537.03L9141.7 4941L9142.05 4941.6L9142.39 4942.21C9200.78 5046.4 9317.77 5103.68 9446.01 5082.46C9544.82 5063.71 9643.8 5054.3 9742.87 5054.3C9841.71 5054.3 9939.63 5063.7 10024.7 5072.69L10027.1 5072.95L10029.5 5073.35C10160.3 5095.33 10287.1 5035.67 10344.5 4940.28C10344.5 4940.24 10344.5 4940.2 10344.5 4940.15L10589.6 4527.53L10629 4461.09L10696.4 4498.84L11337.8 4857.93L11408.6 4897.57L11367.3 4967.41L11112.6 5398.32L11111.8 5399.69L11111 5401.02C11054.6 5488.16 11061.5 5601.88 11132.3 5682.82L11132.9 5683.42L11133.4 5684.03C11140.4 5692.38 11146.9 5700.23 11153.1 5707.67C11182 5742.27 11203.4 5767.99 11231.1 5794.32L11234.3 5797.36L11237.1 5800.74C11245.2 5810.33 11253.1 5819.73 11261 5828.98C11324.1 5903.66 11379.5 5969.05 11425.8 6057.26C11487.5 6174.7 11620.7 6257.24 11761.2 6257.24H12119.6C12164.1 6257.24 12185.3 6290.63 12188.9 6296.47C12195 6306.44 12197.8 6315.81 12199 6319.95C12201.7 6329.46 12203.2 6339.4 12204.1 6346.79C12206 6362.77 12207.3 6383.51 12208.2 6405.81C12210 6451.1 12210.6 6510.76 12210.6 6569.9C12210.6 6629.29 12210 6689.14 12209.4 6735.18C12209.4 6735.96 12209.4 6736.74 12209.4 6737.51H12502.4V6354.45C12502.4 6160.53 12335.3 6002.81 12129 6002.81H11789.5C11757.9 6002.81 11699.1 5986.01 11685 5931.19C11624.9 5819.91 11559.4 5744.43 11487.4 5661.51C11477.8 5650.55 11468.2 5639.46 11458.5 5628.14C11440.2 5610.72 11408 5579.9 11385 5547.1L11356 5505.71L11381.3 5461.97L11689.5 4928.62C11719 4848.66 11685.1 4751.09 11609.5 4709.12L11609.3 4709L11609.1 4708.88L10689.5 4190.83C10590.6 4152.73 10486.9 4189.57 10443.8 4265.9L10443.4 4266.52L10443 4267.14L10141.2 4778.83L10115.9 4821.84L10066.1 4817.53C9962.03 4808.53 9861.56 4799.88 9752.3 4799.88C9653.16 4799.88 9553.93 4808.45 9454.59 4825.65L9400.27 4835.05L9372.55 4787.39L9080.48 4285.18C9048.7 4232.48 8997.17 4188.29 8958.13 4177.68C8913.03 4165.41 8858.71 4171.02 8809.74 4197.52C8809.6 4197.6 8809.46 4197.68 8809.32 4197.75L7916.26 4698.84C7874.53 4725.82 7844.69 4763.79 7833.06 4808.08C7821.58 4851.78 7825.35 4911.05 7868.4 4985.76C7868.48 4985.9 7868.56 4986.04 7868.65 4986.18L8151.08 5461.11L8183.4 5515.45L8137.6 5559.04C8108.67 5586.58 8095.52 5599.41 8081.86 5618.91L8079.4 5622.42L8076.57 5625.65C8067.29 5636.25 8058.2 5646.58 8049.28 5656.71C7965.37 5752.02 7897.5 5829.11 7842.89 5940.49L7836.65 5953.23L7826.37 5963.01L7825.55 5963.79C7821.47 5967.69 7813.08 5975.7 7803.63 5982.45C7794.11 5989.24 7772.8 6002.81 7743.43 6002.81H7309.59C7104.42 6002.81 6936.15 6168.46 6936.15 6354.45Z" fill="white" stroke="#181818" stroke-width="158.523"/>
<path d="M1351.02 6627.23L9722.26 1610.1L18093.5 6627.23V16673.5L9722.26 21694.7L1351.02 16673.5L1351.02 6627.23Z" stroke="white" stroke-width="95.1137" stroke-linejoin="round"/>
<path d="M1914.59 6737.17L9723.71 2056.95L17532.8 6737.17L1914.59 6737.17Z" stroke="white" stroke-width="95.1137" stroke-linejoin="round"/>
<path d="M674.516 6250.8L9726.17 858.344L18777.8 6250.8V17048.7L9726.17 22445.5L674.516 17048.7L674.516 6250.8Z" stroke="white" stroke-width="95.1137" stroke-linejoin="round" stroke-dasharray="1624.53 1624.53"/>
<rect width="5308.1" height="7754.23" rx="2633.67" transform="matrix(-1 0 0 1 12378.5 12048.5)" stroke="white" stroke-width="95.1137"/>
<path d="M7070.38 11844.8L7062.23 20006.7" stroke="white" stroke-width="95.1137" stroke-linecap="round"/>
<path d="M12386.7 11844.8L12378.5 20006.7" stroke="white" stroke-width="95.1137" stroke-linecap="round"/>
<path d="M12378.5 15929.8L7062.24 15929.8" stroke="white" stroke-width="95.1137"/>
<path d="M4492.14 17965L1856.7 16393.1L1856.71 7253.58L9726.66 7253.58L3289.01 12327.9L4043.45 13315.9L5387.66 12473.4L5908.49 13063.2L5908.48 17959.4H5168.16L4492.14 17965Z" stroke="white" stroke-width="95.1137" stroke-linejoin="round"/>
<path d="M14959.9 17968.3L17595.3 16396.4L17595.3 7256.89L9725.35 7256.89L16163 12331.2L15408.6 13319.2L14064.3 12476.7L13543.5 13066.5L13543.5 17962.7H14283.8L14959.9 17968.3Z" stroke="white" stroke-width="95.1137" stroke-linejoin="round"/>
<rect x="8057.58" y="10277.7" width="1480.91" height="409.631" rx="204.816" transform="rotate(-30.2231 8057.58 10277.7)" fill="#181818" stroke="#EA4335" stroke-width="119.859"/>
<rect x="81.9503" y="-21.6169" width="1498.31" height="409.631" rx="204.816" transform="matrix(0.864072 0.503368 0.503368 -0.864072 7956.85 10370.3)" fill="#181818" stroke="#4285F4" stroke-width="119.859"/>
<rect x="11392.4" y="10456.1" width="1446.89" height="409.631" rx="204.816" transform="rotate(149.777 11392.4 10456.1)" fill="#181818" stroke="#FBBC04" stroke-width="119.859"/>
<rect x="-81.9503" y="21.6169" width="1480.91" height="409.631" rx="204.816" transform="matrix(-0.864072 -0.503368 -0.503368 0.864072 11388.7 10217.8)" fill="#181818" stroke="#0F9D58" stroke-width="119.859"/>
</svg>
