<svg width="15489" height="18455" viewBox="0 0 15489 18455" fill="none" xmlns="http://www.w3.org/2000/svg">
<path d="M7744.7 4206.19C7250.21 4206.19 6858.29 4561.63 6821.43 4998.74H7039.97C7077.01 4666.75 7384 4407.85 7744.7 4407.85C8099.34 4407.85 8398.14 4661.64 8433.62 4998.74H8667.92C8630.38 4561.92 8231.9 4206.19 7744.7 4206.19Z" fill="white" stroke="black" stroke-width="134.917"/>
<path d="M9858.21 5044.69H10107.6V4718.67C10107.6 4553.63 9965.34 4419.39 9789.78 4419.39H9500.81C9473.98 4419.39 9423.9 4405.09 9411.91 4358.44C9360.76 4263.73 9304.98 4199.49 9243.69 4128.92C9235.59 4119.59 9227.39 4110.15 9219.09 4100.51C9203.51 4085.69 9176.15 4059.46 9156.59 4031.54L9131.93 3996.32L9153.44 3959.09L9415.73 3505.17C9440.86 3437.11 9412 3354.07 9347.66 3318.35L9347.48 3318.24L9347.3 3318.14L8564.63 2877.24C8480.47 2844.81 8392.24 2876.16 8355.49 2941.13L8355.19 2941.66L8354.88 2942.18L8098.02 3377.68L8076.44 3414.28L8034.1 3410.62C7945.5 3402.95 7859.99 3395.59 7767 3395.59C7682.62 3395.59 7598.17 3402.89 7513.62 3417.52L7467.39 3425.52L7443.8 3384.97L7195.22 2957.53C7168.17 2912.69 7124.31 2875.08 7091.1 2866.04C7052.71 2855.6 7006.47 2860.38 6964.79 2882.94L6204.37 3309.6C6168.85 3332.56 6143.46 3364.88 6133.56 3402.57C6123.79 3439.76 6127 3490.21 6163.64 3553.8L6404.22 3958.36L6431.73 4004.61L6392.75 4041.7C6368.13 4065.14 6356.93 4076.07 6345.31 4092.66L6343.22 4095.65L6340.81 4098.4C6332.91 4107.42 6325.17 4116.21 6317.58 4124.83C6246.17 4205.95 6188.4 4271.56 6141.93 4366.35L6136.61 4377.19L6127.87 4385.52L6127.17 4386.18C6123.7 4389.5 6116.56 4396.32 6108.51 4402.06C6100.41 4407.85 6082.27 4419.39 6057.28 4419.39H5688.04C5513.42 4419.39 5370.21 4560.38 5370.21 4718.67V5044.69H5636.63V5044.56V5043.66V5042.75V5041.83V5040.92V5040V5039.07V5038.14V5037.21V5036.27V5035.33V5034.38V5033.43V5032.48V5031.52V5030.56V5029.59V5028.63V5027.65V5026.68V5025.7V5024.71V5023.72V5022.73V5021.74V5020.74V5019.74V5018.73V5017.73V5016.71V5015.7V5014.68V5013.66V5012.63V5011.6V5010.57V5009.54V5008.5V5007.46V5006.42V5005.37V5004.32V5003.27V5002.21V5001.15V5000.09V4999.03V4997.96V4996.89V4995.82V4994.74V4993.67V4992.59V4991.5V4990.42V4989.33V4988.24V4987.15V4986.05V4984.96V4983.86V4982.76V4981.65V4980.55V4979.44V4978.33V4977.21V4976.1V4974.98V4973.86V4972.74V4971.62V4970.5V4969.37V4968.24V4967.11V4965.98V4964.85V4963.71V4962.58V4961.44V4960.3V4959.16V4958.01V4956.87V4955.72V4954.57V4953.43V4952.28V4951.12V4949.97V4948.82V4947.66V4946.51V4945.35V4944.19V4943.03V4941.87V4940.71V4939.55V4938.38V4937.22V4936.05V4934.89V4933.72V4932.55V4931.38V4930.21V4929.04V4927.87V4926.7V4925.53V4924.36V4923.19V4922.01V4920.84V4919.67V4918.49V4917.32V4916.14V4914.97V4913.79V4912.62V4911.44V4910.27V4909.09V4907.92V4906.74V4905.57V4904.39V4903.21V4902.04V4900.86V4899.69V4898.52V4897.34V4896.17V4894.99V4893.82V4892.65V4891.47V4890.3V4889.13V4887.96V4886.79V4885.62V4884.45V4883.28V4882.12V4880.95V4879.78V4878.62V4877.45V4876.29V4875.13V4873.97V4872.81V4871.65V4870.49V4869.33V4868.17V4867.02V4865.87V4864.71V4863.56V4862.41V4861.26V4860.12V4858.97V4857.83V4856.68V4855.54V4854.4V4853.26V4852.13V4850.99V4849.86V4848.73V4847.6V4846.47V4845.34V4844.22V4843.1V4841.98V4840.86V4839.74V4838.63V4837.52V4836.4V4835.3V4834.19V4833.09V4831.99V4830.89V4829.79V4828.7V4827.6V4826.51V4825.43V4824.34V4823.26V4822.18V4821.1V4820.03V4818.96V4817.89V4816.82V4815.76V4814.7V4813.64V4812.58V4811.53V4810.48V4809.44V4808.39V4807.35V4806.31V4805.28V4804.25V4803.22V4802.2V4801.18V4800.16V4799.14V4798.13V4797.12V4796.12V4795.12V4794.12V4793.13V4792.14V4791.15V4790.17V4789.19V4788.21V4787.24V4786.27V4785.3V4784.34V4783.39V4782.43V4781.48V4780.54V4779.6V4778.66V4777.73V4776.8V4775.87V4774.95V4774.04V4773.12V4772.22V4771.31V4770.41V4769.52V4768.63V4767.74V4766.86V4765.98V4765.11V4764.24V4763.38V4762.52V4761.67V4760.82V4759.97V4759.13V4758.3V4757.47V4756.64V4755.82V4755.01V4754.2V4753.39V4752.59V4751.8V4751.01V4750.22V4749.45V4748.67V4747.9V4747.14V4746.38V4745.63V4744.88V4744.14V4743.4V4742.67V4741.95V4741.23V4740.51V4739.8V4739.1V4738.4V4737.71V4737.03V4736.35V4735.67V4735.01V4734.34V4733.69V4733.04V4732.39V4731.76V4731.12V4730.5V4729.88V4729.27V4728.66V4728.06V4727.46V4726.88V4726.29V4725.72V4725.15V4724.59V4724.03V4723.48V4722.94V4722.4V4721.88V4721.35V4720.84V4720.33V4719.83V4719.33V4718.84V4718.36V4717.88V4717.42V4716.96V4716.5V4716.06V4715.62V4715.18V4714.76V4714.34V4713.93V4713.53V4713.13V4712.74V4712.36V4711.99V4711.62V4711.26V4710.91V4710.56V4710.23V4709.9V4709.58V4709.26V4708.96V4708.66V4708.37V4708.09V4707.81V4707.55V4707.29V4707.04V4706.79V4706.56V4706.33V4706.12V4705.91V4705.7V4705.51V4705.32V4705.15V4704.98V4704.82V4704.66V4704.52V4704.38V4704.26V4704.14V4704.03V4703.93V4703.84V4703.75V4703.68V4703.61V4703.55V4703.5V4703.46V4703.43V4703.41V4703.4V4703.39V4635.93H5704.09H6057.28C6175.88 4635.93 6288.44 4566.78 6341.47 4468.06C6378.94 4380.49 6435.03 4319.44 6505.93 4244.47L6507.15 4243.18L6508.43 4241.95C6531.98 4219.54 6550.23 4197.65 6574.78 4168.2C6580.06 4161.87 6585.62 4155.19 6591.6 4148.09L6592.04 4147.56L6592.48 4147.05C6654.86 4075.8 6665.57 3985.36 6617.51 3905.32L6617.39 3905.12L6617.27 3904.92L6400.54 3538.18L6365.48 3478.85L6425.55 3445.06L6955.33 3147.09L7013.19 3114.54L7046.66 3171.88L7247.33 3515.7L7247.63 3516.21L7247.92 3516.73C7297.61 3605.41 7397.18 3654.16 7506.32 3636.09C7590.42 3620.13 7674.66 3612.13 7758.98 3612.13C7843.1 3612.13 7926.43 3620.12 7998.85 3627.78L8000.9 3628L8002.93 3628.34C8114.28 3647.04 8222.18 3596.27 8270.98 3515.09C8271.01 3515.05 8271.03 3515.02 8271.05 3514.98L8479.58 3163.8L8513.16 3107.26L8570.54 3139.39L9116.37 3445L9176.62 3478.73L9141.49 3538.18L8924.77 3904.92L8924.08 3906.08L8923.34 3907.22C8875.39 3981.38 8881.22 4078.17 8941.53 4147.05L8941.97 4147.56L8942.41 4148.09C8948.39 4155.19 8953.95 4161.87 8959.23 4168.2C8983.78 4197.65 9002.03 4219.54 9025.58 4241.95L9028.29 4244.54L9030.71 4247.41C9037.57 4255.58 9044.34 4263.58 9051 4271.45C9104.77 4335 9151.86 4390.66 9191.3 4465.73C9243.8 4565.69 9357.2 4635.93 9476.73 4635.93H9781.76C9819.7 4635.93 9837.7 4664.36 9840.74 4669.32C9845.93 4677.81 9848.36 4685.78 9849.36 4689.31C9851.67 4697.4 9852.9 4705.86 9853.67 4712.15C9855.33 4725.75 9856.42 4743.4 9857.19 4762.38C9858.75 4800.93 9859.25 4851.71 9859.25 4902.04C9859.25 4952.59 9858.74 5003.52 9858.24 5042.7C9858.23 5043.37 9858.22 5044.03 9858.21 5044.69Z" fill="white" stroke="black" stroke-width="134.917"/>
<path d="M616.766 4950.83L7741.44 680.808L14866.1 4950.83V13501.1L7741.44 17774.6L616.766 13501.1L616.766 4950.83Z" stroke="white" stroke-width="80.9502" stroke-linejoin="round"/>
<path d="M1096.42 5044.4L7742.66 1061.12L14388.9 5044.4L1096.42 5044.4Z" stroke="white" stroke-width="80.9502" stroke-linejoin="round"/>
<path d="M41 4630.46L7744.76 41L15448.5 4630.46V13820.4L7744.76 18413.5L41 13820.4L41 4630.46Z" stroke="white" stroke-width="80.9502" stroke-linejoin="round" stroke-dasharray="1382.62 1382.62"/>
<rect width="4517.67" height="6599.54" rx="2241.49" transform="matrix(-1 0 0 1 10002.1 9564.84)" stroke="white" stroke-width="80.9502"/>
<path d="M5484.45 9391.4L5477.51 16337.9" stroke="white" stroke-width="80.9502" stroke-linecap="round"/>
<path d="M10009.1 9391.4L10002.2 16337.9" stroke="white" stroke-width="80.9502" stroke-linecap="round"/>
<path d="M10002.1 12868.1L5477.53 12868.1" stroke="white" stroke-width="80.9502"/>
<path d="M3290.14 14600.3L1047.15 13262.5L1047.16 5483.92L7745.18 5483.92L2266.16 9802.6L2908.26 10643.5L4052.3 9926.45L4495.58 10428.4L4495.57 14595.5H3865.49L3290.14 14600.3Z" stroke="white" stroke-width="80.9502" stroke-linejoin="round"/>
<path d="M12199.1 14603.1L14442.1 13265.3L14442.1 5486.73L7744.06 5486.73L13223.1 9805.4L12581 10646.3L11436.9 9929.26L10993.7 10431.2L10993.7 14598.3H11623.7L12199.1 14603.1Z" stroke="white" stroke-width="80.9502" stroke-linejoin="round"/>
<rect x="6324.64" y="8057.69" width="1260.39" height="348.633" rx="174.316" transform="rotate(-30.2231 6324.64 8057.69)" fill="black" stroke="#EA4335" stroke-width="102.011"/>
<rect x="69.747" y="-18.3979" width="1275.2" height="348.633" rx="174.316" transform="matrix(0.864072 0.503368 0.503368 -0.864072 6238.91 8136.49)" fill="black" stroke="#4285F4" stroke-width="102.011"/>
<rect x="9162.85" y="8209.53" width="1231.43" height="348.633" rx="174.316" transform="rotate(149.777 9162.85 8209.53)" fill="black" stroke="#FBBC04" stroke-width="102.011"/>
<rect x="-69.747" y="18.3979" width="1260.39" height="348.633" rx="174.316" transform="matrix(-0.864072 -0.503368 -0.503368 0.864072 9159.75 8006.68)" fill="black" stroke="#0F9D58" stroke-width="102.011"/>
</svg>
