<svg width="16549" height="19853" viewBox="0 0 16549 19853" fill="none" xmlns="http://www.w3.org/2000/svg">
<path d="M0.824219 4959.81L8274.91 0.919922L16549 4959.81V14889.5L8274.91 19852.4L0.824219 14889.5V4959.81Z" fill="black"/>
<path d="M8278.6 4896.64C7784.11 4896.64 7392.18 5252.08 7355.32 5689.19H7573.87C7610.9 5357.19 7917.9 5098.3 8278.6 5098.3C8633.23 5098.3 8932.03 5352.09 8967.52 5689.19H9201.82C9164.28 5252.37 8765.79 4896.64 8278.6 4896.64Z" fill="white" stroke="black" stroke-width="134.917"/>
<path d="M10392.1 5735.14H10641.5V5409.12C10641.5 5244.07 10499.2 5109.84 10323.7 5109.84H10034.7C10007.9 5109.84 9957.8 5095.54 9945.8 5048.89C9894.65 4954.18 9838.87 4889.94 9777.59 4819.37C9769.48 4810.04 9761.29 4800.6 9752.99 4790.96C9737.41 4776.13 9710.04 4749.91 9690.49 4721.99L9665.82 4686.77L9687.33 4649.54L9949.62 4195.61C9974.75 4127.56 9945.89 4044.51 9881.56 4008.79L9881.38 4008.69L9881.2 4008.59L9098.53 3567.69C9014.36 3535.26 8926.14 3566.61 8889.39 3631.58L8889.09 3632.11L8888.78 3632.63L8631.92 4068.13L8610.33 4104.73L8568 4101.07C8479.4 4093.4 8393.89 4086.04 8300.9 4086.04C8216.52 4086.04 8132.07 4093.34 8047.52 4107.97L8001.29 4115.97L7977.7 4075.41L7729.11 3647.98C7702.07 3603.13 7658.21 3565.52 7624.99 3556.49C7586.6 3546.05 7540.36 3550.83 7498.68 3573.39L6738.26 4000.05C6702.75 4023.01 6677.35 4055.33 6667.45 4093.02C6657.68 4130.21 6660.89 4180.66 6697.54 4244.25L6938.12 4648.81L6965.62 4695.05L6926.65 4732.15C6902.02 4755.59 6890.83 4766.51 6879.2 4783.11L6877.11 4786.1L6874.71 4788.85C6866.81 4797.87 6859.07 4806.66 6851.48 4815.28C6780.06 4896.4 6722.29 4962.01 6675.82 5056.8L6670.51 5067.64L6661.76 5075.97L6661.06 5076.63C6657.59 5079.95 6650.45 5086.77 6642.4 5092.51C6634.31 5098.29 6616.16 5109.84 6591.17 5109.84H6221.93C6047.31 5109.84 5904.1 5250.83 5904.1 5409.12V5735.14H6170.53V5735.01V5734.1V5733.19V5732.28V5731.37V5730.44V5729.52V5728.59V5727.66V5726.72V5725.78V5724.83V5723.88V5722.93V5721.97V5721.01V5720.04V5719.07V5718.1V5717.12V5716.14V5715.16V5714.17V5713.18V5712.19V5711.19V5710.19V5709.18V5708.17V5707.16V5706.15V5705.13V5704.11V5703.08V5702.05V5701.02V5699.99V5698.95V5697.91V5696.86V5695.82V5694.77V5693.72V5692.66V5691.6V5690.54V5689.48V5688.41V5687.34V5686.27V5685.19V5684.12V5683.04V5681.95V5680.87V5679.78V5678.69V5677.6V5676.5V5675.41V5674.31V5673.2V5672.1V5670.99V5669.89V5668.78V5667.66V5666.55V5665.43V5664.31V5663.19V5662.07V5660.95V5659.82V5658.69V5657.56V5656.43V5655.3V5654.16V5653.02V5651.89V5650.75V5649.6V5648.46V5647.32V5646.17V5645.02V5643.87V5642.72V5641.57V5640.42V5639.27V5638.11V5636.95V5635.8V5634.64V5633.48V5632.32V5631.16V5629.99V5628.83V5627.67V5626.5V5625.33V5624.17V5623V5621.83V5620.66V5619.49V5618.32V5617.15V5615.98V5614.81V5613.64V5612.46V5611.29V5610.12V5608.94V5607.77V5606.59V5605.42V5604.24V5603.07V5601.89V5600.72V5599.54V5598.37V5597.19V5596.01V5594.84V5593.66V5592.49V5591.31V5590.14V5588.96V5587.79V5586.62V5585.44V5584.27V5583.1V5581.92V5580.75V5579.58V5578.41V5577.24V5576.07V5574.9V5573.73V5572.56V5571.4V5570.23V5569.07V5567.9V5566.74V5565.58V5564.41V5563.25V5562.09V5560.94V5559.78V5558.62V5557.47V5556.31V5555.16V5554.01V5552.86V5551.71V5550.56V5549.42V5548.27V5547.13V5545.99V5544.85V5543.71V5542.58V5541.44V5540.31V5539.18V5538.05V5536.92V5535.79V5534.67V5533.55V5532.42V5531.31V5530.19V5529.08V5527.96V5526.85V5525.75V5524.64V5523.54V5522.43V5521.33V5520.24V5519.14V5518.05V5516.96V5515.87V5514.79V5513.71V5512.63V5511.55V5510.48V5509.4V5508.34V5507.27V5506.21V5505.14V5504.09V5503.03V5501.98V5500.93V5499.88V5498.84V5497.8V5496.76V5495.73V5494.7V5493.67V5492.65V5491.62V5490.61V5489.59V5488.58V5487.57V5486.57V5485.57V5484.57V5483.57V5482.58V5481.6V5480.61V5479.63V5478.66V5477.69V5476.72V5475.75V5474.79V5473.83V5472.88V5471.93V5470.99V5470.05V5469.11V5468.18V5467.25V5466.32V5465.4V5464.48V5463.57V5462.66V5461.76V5460.86V5459.97V5459.08V5458.19V5457.31V5456.43V5455.56V5454.69V5453.83V5452.97V5452.12V5451.27V5450.42V5449.58V5448.75V5447.92V5447.09V5446.27V5445.46V5444.65V5443.84V5443.04V5442.25V5441.46V5440.67V5439.89V5439.12V5438.35V5437.59V5436.83V5436.08V5435.33V5434.59V5433.85V5433.12V5432.39V5431.67V5430.96V5430.25V5429.55V5428.85V5428.16V5427.48V5426.8V5426.12V5425.45V5424.79V5424.14V5423.49V5422.84V5422.2V5421.57V5420.95V5420.33V5419.71V5419.11V5418.51V5417.91V5417.32V5416.74V5416.17V5415.6V5415.04V5414.48V5413.93V5413.39V5412.85V5412.32V5411.8V5411.29V5410.78V5410.27V5409.78V5409.29V5408.81V5408.33V5407.87V5407.4V5406.95V5406.5V5406.06V5405.63V5405.21V5404.79V5404.38V5403.97V5403.58V5403.19V5402.81V5402.43V5402.07V5401.71V5401.36V5401.01V5400.68V5400.35V5400.03V5399.71V5399.41V5399.11V5398.82V5398.54V5398.26V5398V5397.74V5397.49V5397.24V5397.01V5396.78V5396.56V5396.35V5396.15V5395.96V5395.77V5395.59V5395.43V5395.26V5395.11V5394.97V5394.83V5394.71V5394.59V5394.48V5394.38V5394.28V5394.2V5394.12V5394.06V5394V5393.95V5393.91V5393.88V5393.86V5393.84V5393.84V5326.38H6237.99H6591.17C6709.77 5326.38 6822.33 5257.23 6875.37 5158.51C6912.83 5070.94 6968.93 5009.89 7039.82 4934.91L7041.04 4933.62L7042.33 4932.4C7065.87 4909.99 7084.12 4888.1 7108.68 4858.65C7113.95 4852.32 7119.52 4845.64 7125.49 4838.53L7125.93 4838.01L7126.38 4837.5C7188.76 4766.25 7199.46 4675.81 7151.4 4595.76L7151.28 4595.56L7151.17 4595.36L6934.44 4228.63L6899.38 4169.3L6959.44 4135.51L7489.22 3837.54L7547.08 3804.99L7580.55 3862.33L7781.22 4206.14L7781.52 4206.66L7781.81 4207.17C7831.5 4295.85 7931.08 4344.61 8040.22 4326.54C8124.32 4310.58 8208.55 4302.58 8292.87 4302.58C8376.99 4302.58 8460.33 4310.57 8532.75 4318.23L8534.8 4318.45L8536.83 4318.79C8648.17 4337.49 8756.07 4286.72 8804.88 4205.54C8804.9 4205.5 8804.92 4205.46 8804.95 4205.43L9013.48 3854.25L9047.06 3797.71L9104.44 3829.83L9650.27 4135.45L9710.52 4169.18L9675.39 4228.63L9458.66 4595.36L9457.97 4596.53L9457.23 4597.67C9409.29 4671.83 9415.11 4768.61 9475.42 4837.5L9475.87 4838.01L9476.31 4838.53C9482.28 4845.64 9487.85 4852.32 9493.12 4858.65C9517.68 4888.1 9535.93 4909.99 9559.47 4932.4L9562.19 4934.99L9564.6 4937.86C9571.47 4946.03 9578.23 4954.02 9584.9 4961.9C9638.67 5025.45 9685.76 5081.11 9725.19 5156.18C9777.7 5256.14 9891.1 5326.38 10010.6 5326.38H10315.7C10353.6 5326.38 10371.6 5354.81 10374.6 5359.77C10379.8 5368.26 10382.3 5376.23 10383.3 5379.76C10385.6 5387.85 10386.8 5396.31 10387.6 5402.6C10389.2 5416.2 10390.3 5433.85 10391.1 5452.83C10392.6 5491.37 10393.1 5542.15 10393.1 5592.49C10393.1 5643.03 10392.6 5693.97 10392.1 5733.15C10392.1 5733.82 10392.1 5734.48 10392.1 5735.14Z" fill="white" stroke="black" stroke-width="134.917"/>
<path d="M1150.66 5641.27L8275.33 1371.26L15400 5641.27V14191.6L8275.33 18465L1150.66 14191.6L1150.66 5641.27Z" stroke="white" stroke-width="80.9502" stroke-linejoin="round"/>
<path d="M1630.31 5734.85L8276.56 1751.57L14922.8 5734.85L1630.31 5734.85Z" stroke="white" stroke-width="80.9502" stroke-linejoin="round"/>
<path d="M574.898 5320.91L8278.66 731.448L15982.4 5320.91V14510.9L8278.66 19104L574.898 14510.9L574.898 5320.91Z" stroke="white" stroke-width="80.9502" stroke-linejoin="round" stroke-dasharray="1382.62 1382.62"/>
<rect width="4517.67" height="6599.54" rx="2241.49" transform="matrix(-1 0 0 1 10536 10255.3)" stroke="white" stroke-width="80.9502"/>
<path d="M6018.34 10081.9L6011.4 17028.4" stroke="white" stroke-width="80.9502" stroke-linecap="round"/>
<path d="M10543 10081.9L10536.1 17028.4" stroke="white" stroke-width="80.9502" stroke-linecap="round"/>
<path d="M10536 13558.6L6011.42 13558.6" stroke="white" stroke-width="80.9502"/>
<path d="M3824.03 15290.7L1581.04 13952.9L1581.05 6174.37L8279.07 6174.37L2800.06 10493L3442.15 11334L4586.19 10616.9L5029.47 11118.8L5029.46 15286H4399.38L3824.03 15290.7Z" stroke="white" stroke-width="80.9502" stroke-linejoin="round"/>
<path d="M12733 15293.5L14976 13955.7L14976 6177.17L8277.95 6177.17L13757 10495.9L13114.9 11336.8L11970.8 10619.7L11527.6 11121.7L11527.6 15288.8H12157.6L12733 15293.5Z" stroke="white" stroke-width="80.9502" stroke-linejoin="round"/>
<rect x="6858.54" y="8748.14" width="1260.39" height="348.633" rx="174.316" transform="rotate(-30.2231 6858.54 8748.14)" fill="black" stroke="#EA4335" stroke-width="102.011"/>
<rect x="69.747" y="-18.3979" width="1275.2" height="348.633" rx="174.316" transform="matrix(0.864072 0.503368 0.503368 -0.864072 6772.81 8826.94)" fill="black" stroke="#4285F4" stroke-width="102.011"/>
<rect x="9696.74" y="8899.98" width="1231.43" height="348.633" rx="174.316" transform="rotate(149.777 9696.74 8899.98)" fill="black" stroke="#FBBC04" stroke-width="102.011"/>
<rect x="-69.747" y="18.3979" width="1260.39" height="348.633" rx="174.316" transform="matrix(-0.864072 -0.503368 -0.503368 0.864072 9693.64 8697.13)" fill="black" stroke="#0F9D58" stroke-width="102.011"/>
</svg>
