<svg width="169" height="288" viewBox="0 0 169 288" fill="none" xmlns="http://www.w3.org/2000/svg">
<path d="M168.902 146.624L84.4551 0L0.0078125 146.624L84.4551 200.448L168.902 146.624ZM90.6407 35.2639L144.155 128.064L90.6407 97.4398V35.2639ZM90.6407 111.669L149.106 144.768L90.6407 181.888V111.669ZM78.2667 181.888L19.8039 144.768L78.2667 111.669V181.888ZM78.2667 97.4398L25.0612 127.754L78.2667 35.2639V97.4398Z" fill="#B27DE9"/>
<path d="M0 163.947L84.4474 287.372L168.895 163.947L84.4474 217.771L0 163.947ZM78.2618 256.747L44.2327 206.635L77.9505 228.289L78.2618 228.598V256.747ZM90.6329 228.598L90.9442 228.289L124.97 206.635L90.6329 256.747V228.598Z" fill="#B27DE9"/>
</svg>
