<?xml version="1.0" encoding="UTF-8"?>
<svg id="Layer_2" data-name="Layer 2" xmlns="http://www.w3.org/2000/svg" viewBox="0 0 99.08 60.41">
  <defs>
    <style>
      .cls-1 {
        fill: #fff;
        fill-rule: evenodd;
      }
    </style>
  </defs>
  <g id="Website">
    <path class="cls-1" d="m10.92,26.06v.13c-.2.49-.31,1.08-.49,1.63-.38-.04-.68-.17-.98-.26-.09-.1,0-.19.02-.26.35-.32.25-.74.33-1.2.05-.25.29-.47.51-.57.28.04.45.32.61.54m1.79-1.72c-.22.4-.49.88-.93,1.14-.18.05-.37.04-.53-.02-.09-.09-.25-.2-.25-.33.05-.16-.03-.36.13-.46.33-.21.65-.4.95-.68.11-.03.23-.08.32-.02.13.12.28.23.31.38m.63-16.52c.98.25,2.04.28,2.78,1.04.39.49.43,1.33.12,1.84-.55,1-1.68,1.49-2.39,2.34-.68.59-.95,1.49-.72,2.35.26.76,1.01,1.32,1.79,1.37,1.21.01,2.14-.58,3.09-1.14.97-.69,1.87-1.58,3-1.87.72-.26,1.57-.12,2.26-.41.8-.16,1.39-.81,2-1.38.68-.55,1.51-.89,2.41-.86.81.14,1.28-.6,1.82-1.07.95-.83,2.17-.93,3.27-1.43.75-.24,1.4-.8,2.11-1.18.69-.3,1.64-.35,2.34-.09.46.22.91.42,1.32.72l3.33,2.76c.04.11.18.17.26.26.96,1.13,1.94,2.27,2.69,3.49.26.44.34.91.49,1.38.15,1.88.65,3.49,1.27,5.15.16.26.5.43.66.7.54.72.86,1.64,1.7,2.15l.51.24s.05.12,0,.17c-1.1.24-1.87-.39-2.4-1.14-.33-.65-.76-1.36-1.49-1.6,0,.27.23.45.32.67.28.47.53.97.67,1.43.15.51.73.9,1.19,1.2l.65.34c.09.06.12.18.05.26-1.2.06-2.18-.27-2.94-1.1-.18-.19-.42-.37-.69-.37-.49.44-.98.87-1.63.91-.67-.12-1.44-.12-2.06.15-.56.2-1.12.43-1.74.45-.3,0-.63-.13-.73-.41,0-.35-.26-.78-.05-1.13l.43-.61c0-.09-.05-.15-.15-.18-.18-.02-.44.26-.51-.03.04-.64.65-1.03,1.07-1.46.1-.49.29-.93.64-1.34,0-.04-.05-.1-.1-.12-.53.09-1.06.22-1.63.21-.44.24-1,.41-1.53.24-.12-.07-.07-.19-.05-.3.57-.76.76-1.73.62-2.71-.04-.02-.05-.13-.13-.09-.09,0-.11.07-.13.14-.13.87-.42,1.6-.88,2.34-.36.38-.93.36-1.41.51-.12.05-.24.15-.24.3,0,.3.2.54.34.8l1.07,1.95c.03.56-.2,1.06-.32,1.53.05.11.14.07.2.01.39-.32.63-.78.78-1.23.04-.23-.05-.45-.11-.62l-1.12-2.19c.07-.15.25-.12.38-.17.27-.02.48.13.72.19.25.68.52,1.33.99,1.91.1.35.21.86-.03,1.19-.25.44-.5.87-.8,1.32-.28.29-.71.26-1.1.31h-.33c-.97.53-2,.86-3.04,1.17-.46.2-.99.07-1.34-.25-.36-.27-.52-.7-.76-1.05-.29-.36-.73-.06-1.05-.25-.28-.46-.56-.91-.81-1.38-.02-.12.01-.23.1-.33.38-.13.78-.14,1.18-.17.37-.03.75.02,1,.31.48.56.68,1.35,1.43,1.71.56.06,1.07-.14,1.56-.39.28-.16.61-.4.61-.77-.04-.72-.53-1.29-1.12-1.69-.62-.34-1.27-.77-1.72-1.35-.24-.31-.28-.69-.41-1.05-.05-.05-.18-.09-.26-.04-.24.21-.05.56-.03.81.03.18.15.36.04.52-.35.28-.86.14-1.31.15-.92-.05-1.74-.41-2.69-.32-.9.03-2.11.63-2.78-.24-.34-.84-.23-1.87-.09-2.72,0-.1-.1-.16-.19-.18-.07,0-.16.02-.19.09-.22.85-.3,1.8-.48,2.68-.33.78-.88,1.6-1.68,1.99-.71.38-1.52.51-2.35.57-1.55.03-3,.33-3.93,1.67-.08.12-.22.22-.17.4.05.05.16.07.23.03,1.05-1.19,2.41-1.64,3.95-1.59,1.48,0,2.94-.25,3.86-1.51.24-.29.4-.61.6-.89.16-.02.3.2.4.28.03.45-.34.75-.47,1.13-.18.41-.39.89-.84,1.11-.48.12-.88.44-1.32.73-.45.18-1.01.27-1.54.14-.68-.13-1.56-.3-2.22.01-.33.21-.6.57-.92.78-.47.18-.86.58-1.41.56-.36-.08-.82-.33-1.13,0-.39.39-.5,1.01-1.01,1.25-.62.33-1.25,0-1.87-.06.1-.58.18-1.18.56-1.61.24-.03.46-.08.65-.24.23-.21.41-.48.58-.76.52-.31,1.13-.59,1.48-1.14.25-.54.26-1.03.66-1.5l.21-.09,1.1-.08c.44-.2.87-.41,1.28-.71.12-.15.15-.33.12-.52-.2-.53-.39-.92-.51-1.46-.14-.59-.04-1.17-.11-1.8-.04-.05-.08-.16-.19-.16-.72.16-1.44.38-2.22.24-1.1-.14-2.23-.86-2.64-1.95-.36-.94-.27-2.27.42-3.02.66-.82,1.49-1.45,2.27-2.1.13-.11.14-.25.17-.39-.02-.16-.15-.3-.29-.35-.51-.11-1.07.04-1.55-.17-.85-.31-1.52-1.11-1.63-1.99-.03-.39.05-.75.25-1.06.54.29,1.02.76,1.63.93m29.76,14.89c.01.26.01.58-.21.74-.26.09-.56.13-.85.11-.07-.03-.16-.07-.13-.16.11-.38.48-.76.9-.85.12,0,.26,0,.3.15m.88-4.84c.47.54.77,1.1.61,1.81-.06.14-.05.35-.23.4-.09.02-.16-.05-.16-.13-.03-.38-.03-.76-.24-1.07-.26-.27-.53-.74-.92-.74-.29.09-.5.42-.66.64-.24-.38.07-.72.19-1.04.25-.26.18-.96.71-.74.37.21.44.61.71.86m-6.56-5.71c.28.61.28,1.44.09,2.09-.03.04-.07.04-.11.02-.11-.58-.24-1.17-.46-1.72-.13-.32-.55-.6-.36-.97.09-.07.24-.09.36-.04.22.16.35.38.48.61m-4.28,12.02c.03.17.29.37.12.53-.32.24-.7.42-1.13.37-.32-.25-.3-.73-.58-1.04-.08-.24-.47-.24-.38-.49l.13-.09c.44,0,.9-.02,1.34-.08.45.02.32.55.5.81M63.38,7.95c-2.75-4.17-7.48-6.93-12.84-6.93s-9.87,2.61-12.64,6.63c-.22-.11-.45-.2-.67-.32-.1-.02-.21-.06-.3-.09,2.94-4.37,7.94-7.25,13.61-7.25s10.69,2.89,13.62,7.28c-.09.08-.2.17-.3.26-.16.14-.33.27-.49.41m.38,16.69c.07.39.14.65.32.99-2.95,4.3-7.92,7.14-13.54,7.14s-10.79-2.94-13.71-7.38c.22-.32.4-.67.59-1,2.7,4.42,7.55,7.37,13.12,7.37s10.4-2.95,13.11-7.36c.03.09.07.18.11.26m5.29-.89c-.06.38-.19.79-.32,1.15-.13.24-.48.18-.72.13-.25-.09-.65-.12-.69-.48-.04-.33.12-.63.28-.89.38-.06.81.04,1.19-.03.12-.03.23.02.26.12m19.64.3c.33.29.76.5,1.01.88.05.17-.07.33-.17.47-.14.12-.3.2-.49.2-.19-.03-.37-.13-.49-.29-.21-.3-.49-.59-.58-.92.13-.21.43-.56.72-.33m2.08,1.85c.2.29.12.75.19,1.08.05.23.34.42.18.68l-.89.3c-.15,0-.1-.19-.15-.3-.1-.51-.21-.87-.37-1.39-.05-.29.24-.47.44-.65.24-.07.41.16.6.29m-23.26-18.03c.44.3.64.89,1.17,1.03.89.18,1.79.4,2.6.8.58.29,1.1.71,1.62,1.17.5.24,1.1.23,1.62.41.77.21,1.41.8,2.09,1.24.91.71,2.18.6,3.19,1.06,1.63.51,2.95,1.78,4.45,2.54.78.42,1.96.59,2.74.11.52-.38.86-.87.75-1.55-.3-1.64-2.13-2.53-2.99-3.91-.19-.33-.29-.75-.2-1.16.3-.81,1.19-1.22,1.91-1.55.57-.28,1.3-.23,1.85-.55.19-.11.35-.29.5-.42.13,0,.13.13.16.21.17.99-.02,2-.87,2.56-.32.22-.72.32-1.11.43-.32.13-.97-.15-.94.42.08.28.34.47.55.65,1.13.95,2.17,2.16,2.32,3.62.04,1.15-.73,2.14-1.73,2.6-.71.31-1.63.43-2.42.2-.21-.02-.54-.23-.69.05-.05.3.16.56.17.85.09.54.07,1.23-.11,1.73-.07.42-.5.9-.11,1.32.38.55,1.1.38,1.72.51.32.04.43.41.53.66.12.31.14.71.26.93-.01.59.68.83,1.03,1.26.42.44.77,1.19,1.48,1.16.22.51.39.95.46,1.52-.67.07-1.44.25-1.87-.17-.49-.33-.66-1.21-1.37-.98-.3.25-.76.32-1.15.19-.35-.13-.59-.47-.92-.65-.97-.71-2.26-1.06-3.53-.8-.73.2-1.31-.31-1.9-.65-.75-.33-.98-1.14-1.14-1.85l-.15-.86c.01-.1.07-.17.17-.18h.11c.43,1.01,1.28,2.15,2.39,2.51,1.01.4,1.97-.12,3.04.08,1.02.12,1.82.79,2.62,1.41.07.02.13-.06.15-.13-.92-1.24-2.22-1.86-3.73-1.74-1.24.26-2.51-.16-3.22-1.23-.39-.58-.7-1.23-.81-1.94-.12-.82-.29-1.72-.56-2.46-.07-.06-.15-.13-.25-.07l-.07.13c.15.77.36,1.72.07,2.55-.19.64-.86.89-1.49.92-.61.04-1.18-.09-1.81-.09-1.49-.05-2.76.54-4.28.38.13-.33.36-.7.23-1.12-.05-.08-.16-.09-.23-.08-.28.19-.26.53-.42.77-.33.55-.93.99-1.55,1.14-.42.34-.83.78-1.2,1.2-.13.12-.13.34-.09.53.31.72,1.14.83,1.81,1,.31.02.62-.08.79-.36.27-.44.32-1.17.98-1.24h1.44c.11.03.23.1.27.23l-.06.18c-.31.39-.45.89-.87,1.17-.23.07-.53-.01-.68.2-.09.49-.21,1.01-.7,1.27-.35.33-.91.16-1.3.04-.75-.29-1.57-.44-2.31-.68-.34-.1-.47-.51-.8-.59-.34-.09-.7.17-.97-.12-.18-.35-.26-.62-.33-1.01-.14-.25-.2-.52-.26-.8-.06-.24.02-.41.09-.63l1.05-1.91c.08-.11.16-.24.29-.3.25.06.52.19.75.33l-.04.12-1.08,1.67c-.23.54.02,1.15.24,1.59.05.03.08.12.14.08-.02-.33-.07-.67,0-1.03.07-.3.27-.61.47-.89l.85-1.25c.1-.22.07-.55-.07-.74-.38-.38-.92-.49-1.21-.97-.73-.94-.78-2.04-.87-3.21,0-.11-.08-.22-.19-.27-.09-.01-.16.09-.2.14-.22.75-.1,1.7.1,2.39.16.54.38,1.03.61,1.55.02.09-.04.19-.13.23-.55.03-1.14-.02-1.69-.07-.74-.12-1.27-.7-1.87-1.12-.08-.06-.14.02-.18.08.17.83,1.08,1.29,1.36,2.07.18.58.75,1.07.9,1.72,0,.1-.09.19-.17.25-.19.06-.4-.06-.58.04-.03.34.19.7.04,1.07-.19.31-.47.67-.85.7-.74-.27-1.47-.56-2.2-.79-.53-.05-1.06.03-1.56.09-.47-.09-.82-.5-1.18-.8-.1-.03-.22-.03-.31.04-.82.82-1.7,1.71-2.92,1.64-.08,0-.15-.09-.15-.14.56-.57,1.21-1.1,1.44-1.75.17-.56.66-.96.83-1.53.03-.1-.05-.13-.12-.15l-.15.07c-.58.63-1.04,1.28-1.47,1.97-.45.46-1.11.74-1.78.57-.09-.06-.09-.19-.05-.27,2.53-1.54,2.84-4.31,3.53-6.84.49-1.66.83-3.37,2.15-4.73,1.97-2.16,4.42-3.43,6.56-5.31.33-.28.65-.57,1.07-.59,1-.09,1.83.33,2.57.92m-2.32,2.63c.11.19-.02.33-.1.47-.57.54-1.27,1.12-1.69,1.77-.16.21-.26.45-.38.69-.21-.31-.06-.67.02-.98.3-.78.95-1.52,1.62-2.02.16-.11.44-.13.53.08m-6.15,12.47c.08.19.24.39.14.58-.17.12-.46.05-.67.03-.26-.15-.31-.43-.35-.72,0-.06.02-.14.09-.2.29,0,.59.06.78.31m-.13-5.43c.24.33.43.67.59,1.05.01.08,0,.16-.03.25-.07.07-.16.18-.25.1-.29-.1-.24-.53-.58-.51-.27-.02-.43.22-.63.31-.37.32-.85.67-.94,1.16-.06.19-.04.42-.2.55-.1.01-.21-.08-.21-.16-.05-.64.16-1.26.63-1.68.46-.39.78-.91,1.17-1.35.2-.03.36.12.45.27M7.05,41.54l-2.38-.02v18.2H0v-21.96h7.69l.33-.02c3.65,0,6.62,2.92,6.62,6.51,0,3.04-2.15,5.6-5.04,6.29l6.44,9.18h-5.5l-4.66-7.19v-5.26h1.08c1.73,0,3.13-1.27,3.13-2.86s-1.32-2.88-3.04-2.88m59.14-1.98c.99,1.07,1.57,2.46,1.57,3.96,0,1.63-.74,3.14-1.94,4.25,2.96,1.37,3.84,3.16,3.84,5.66,0,3.44-2.98,6.23-6.69,6.29l-9.69.03v-21.84l7.49.03c2.51,0,4.36.46,5.41,1.62m-4.04,16.36h-4.19v-14.25h2.93c1.28,0,2.33,1.05,2.33,2.32s-1.05,2.34-2.33,2.34h-1.53v3.93h2.8c1.56,0,2.73,1.28,2.73,2.82-.05,1.62-1.04,2.72-2.73,2.84m-19.23,2.28c-1.16,1.17-2.71,1.9-4.42,1.9-3.63,0-6.56-3.21-6.56-7.17s2.94-7.19,6.56-7.19c1.7,0,3.25.7,4.41,1.85l-.03-10.89h4.4v23h-4.36v-1.51Zm-6.4-5.36c0-1.95,1.45-3.54,3.23-3.54s3.21,1.58,3.21,3.54-1.45,3.52-3.21,3.52-3.23-1.58-3.23-3.52m-6.7.98c.03-.31.04-.61.04-.92.07-4.75-3.07-7.36-7.08-7.36s-7.25,3.31-7.25,7.35,3.25,7.35,7.26,7.35c3.05,0,5.43-1.39,6.67-3.55l-3.57-1.66c-.44,1-1.51,1.68-2.74,1.68-1.65,0-2.99-1.23-2.99-2.73,0-.1-.04-.07-.02-.15h9.68Zm-9.68-2.52c0-1.5,1.21-2.69,2.67-2.69s2.68,1.19,2.68,2.69h-5.35Zm71.54,8.46h-4.41v-23.1h4.41v23.1Zm7.4,0h-4.38v-23.1h4.38v23.1Zm-23.54-5.54l.02-7.91h-4.38v8.74c0,2.95,3.07,5.36,6.85,5.36s6.85-2.42,6.85-5.36v-8.74l-4.32.03v7.88c-.01,1.31-1.13,2.39-2.52,2.39s-2.5-1.07-2.5-2.39"/>
  </g>
</svg>