<svg width="21" height="16" viewBox="0 0 21 16" fill="none" xmlns="http://www.w3.org/2000/svg">
<path d="M16.3472 2.45446H20.7234V4.14487C20.7234 6.43705 18.871 8.28974 16.5786 8.28974H16.3469V2.45446H16.3472ZM10.1186 0H16.3472V15.9536H15.6064C11.0911 15.9536 10.1883 12.8044 10.1883 10.0028L10.1186 0ZM0 3.61217C0 6.46027 2.03759 7.50215 4.30685 7.84964H0V16H4.14487C8.31266 16 8.7989 14.1476 8.7989 12.3878C8.7989 10.2344 7.31694 8.72953 5.02476 8.15038H8.7989V0H4.65404C0.486247 0 0 1.85239 0 3.61217Z" fill="white"/>
</svg>
